<svg id="Слой_1" data-name="Слой 1" xmlns="http://www.w3.org/2000/svg" viewBox="0 0 450.86 289.63"><defs><style>.cls-1{fill:#fff;}.cls-1,.cls-2{stroke:#000;stroke-miterlimit:10;stroke-width:2px;}.cls-2{fill:none;}</style></defs><path class="cls-1" d="M353,293.48l8.74-86.39A12,12,0,0,0,351,193.93l-36.11-3.7A12,12,0,0,0,301.74,201L279.48,418.46a12,12,0,0,0,10.71,13.16l36.11,3.7a12,12,0,0,0,13.16-10.72l8.36-81.68" transform="translate(-278.42 -189.16)"/><path class="cls-1" d="M422.66,294.53l8-78.4a12,12,0,0,1,13.16-10.71l36.1,3.69a12,12,0,0,1,10.72,13.16L468.4,439.78a12,12,0,0,1-13.15,10.72l-36.11-3.7a12,12,0,0,1-10.72-13.16l9.08-88.71" transform="translate(-278.42 -189.16)"/><line class="cls-2" x1="138.71" y1="154.72" x2="69.3" y2="154.72"/><line class="cls-2" x1="143.87" y1="104.32" x2="74.46" y2="104.32"/><path class="cls-1" d="M572.61,422.83l.1-1,7.94-83.18c.78-8.14-4-15.31-10.53-15.94l-33.62-3.21c-6.57-.62-12.58,5.52-13.36,13.66l-9,94.25-.45,4.74-1.76,18.47" transform="translate(-278.42 -189.16)"/><path class="cls-1" d="M667.73,475.23l-9.86-.94-101.4-9.68-33.61-3.21c-6.57-.63-11.47-6.12-10.89-12.19l2.08-21.84" transform="translate(-278.42 -189.16)"/><line class="cls-2" x1="371.7" y1="240.05" x2="294.19" y2="232.65"/><line class="cls-2" x1="371.7" y1="240.05" x2="385.94" y2="90.9"/><path class="cls-1" d="M726.4,264.47l-1,10.28L707,467.83c-.58,6.07-6.43,10.53-13,9.91l-26.26-2.51-9.86-.94" transform="translate(-278.42 -189.16)"/><path class="cls-1" d="M664.36,280.07,541.29,268.32a11.83,11.83,0,0,1-10.84-12.67l2.75-28.89a11.84,11.84,0,0,1,13-10.39l171.13,16.34a11.84,11.84,0,0,1,10.85,12.67l-1.74,18.15-1,10.74" transform="translate(-278.42 -189.16)"/></svg>